<svg xmlns="http://www.w3.org/2000/svg" width="861.232" height="181.675" viewBox="0 0 861.232 181.675">
  <g>
    <path d="M63.392,153.743c-8.5,0-13.6-4.127-13.6-16.516V78.694H86.951V55.619H49.79v-35.7H18.458v35.7H0L.243,78.694H18.458v64.12c0,26.716,17,38.861,38.132,38.861A62.551,62.551,0,0,0,89.137,172.2l-7.286-23.8C74.807,151.8,68.735,153.743,63.392,153.743Z" fill="#4e3aee"/>
    <path d="M169.529,49.305c-41.047,0-68.735,26.474-68.735,65.82,0,39.591,27.688,66.307,68.735,66.307,40.561,0,68.25-26.716,68.25-66.307C237.779,75.779,210.09,49.305,169.529,49.305Zm0,105.654c-21.859,0-36.918-16.031-36.918-39.347s15.059-39.348,36.918-39.348c21.374,0,36.432,16.031,36.432,39.348S190.9,154.959,169.529,154.959Z" fill="#4e3aee"/>
    <path d="M511.493,71.65c-9.47-14.573-24.53-22.588-44.445-22.588-36.433,0-61.208,26.475-61.208,65.821,0,39.59,24.775,66.792,61.935,66.792,19.431,0,34.491-8.015,43.718-22.345v20.888h31.576V0H511.493ZM474.577,155.2c-21.859,0-36.676-16.272-36.919-39.588.243-23.075,15.3-39.59,36.919-39.59,21.859,0,36.916,16.273,36.916,39.59S496.436,155.2,474.577,155.2Z" fill="#4e3aee"/>
    <path d="M640.46,49.305c-41.047,0-68.736,26.474-68.736,65.82,0,39.591,27.689,66.307,68.736,66.307,40.561,0,68.248-26.716,68.248-66.307C708.708,75.779,681.021,49.305,640.46,49.305Zm0,105.654c-21.859,0-36.919-16.031-36.919-39.347S618.6,76.264,640.46,76.264c21.372,0,36.432,16.031,36.432,39.348S661.832,154.959,640.46,154.959Z" fill="#4e3aee"/>
    <path d="M792.983,49.305c-41.046,0-68.735,26.474-68.735,65.82,0,39.591,27.689,66.307,68.735,66.307,40.562,0,68.249-26.716,68.249-66.307C861.232,75.779,833.545,49.305,792.983,49.305Zm0,105.654c-21.859,0-36.919-16.031-36.919-39.347s15.06-39.348,36.919-39.348c21.373,0,36.433,16.031,36.433,39.348S814.356,154.959,792.983,154.959Z" fill="#4e3aee"/>
    <path d="M322.052,49.305c-41.046,0-68.734,26.474-68.734,65.82,0,39.591,27.688,66.307,68.734,66.307,40.561,0,68.251-26.716,68.251-66.307C390.3,75.779,362.613,49.305,322.052,49.305ZM310.864,153.35l-33.531-33.531,11.14-11.139,22.391,22.391,44.284-44.282,11.139,11.139Z" fill="#4e3aee"/>
  </g>
</svg>
